<svg width="324" height="76" fill="none" xmlns="http://www.w3.org/2000/svg"><path d="M7.53 68.807h-.864V72h-.937v-7.11h.937v3.135h.732l2.486-3.134h1.167l-2.715 3.447L11.25 72h-1.147L7.53 68.807zM18.168 72h-.903v-2.256h-2.427V72h-.908v-5.283h.908v2.29h2.427v-2.29h.903V72zm6.873-5.283h.903V72h-.903v-3.853L22.605 72H21.7v-5.283h.904v3.857l2.436-3.857zm8.567 2.988h-.634V72h-.904v-2.295h-.634L29.956 72h-1.142l1.89-2.734-1.71-2.55h1.094l1.362 2.188h.62v-2.187h.904v2.187h.615l1.372-2.187h1.094L34.34 69.27 36.23 72h-1.143l-1.48-2.295zM43.368 72h-.904v-2.256h-2.427V72h-.908v-5.283h.908v2.29h2.427v-2.29h.903V72zm4.44-3.462h1.373c.599.007 1.072.163 1.42.469.349.306.523.72.523 1.245 0 .527-.179.95-.537 1.27-.358.319-.84.478-1.445.478h-2.237v-5.283h.904v1.821zm5.2 3.462h-.907v-5.283h.908V72zm-5.2-2.725v1.988h1.343c.339 0 .601-.087.786-.26.186-.175.279-.414.279-.717 0-.293-.091-.532-.274-.718-.179-.188-.43-.286-.757-.293H47.81zm12.196-2.558h.903V72h-.903v-3.853L57.567 72h-.903v-5.283h.903v3.857l2.437-3.857zm.244-1.924c0 .394-.135.711-.405.952-.267.238-.619.357-1.055.357-.436 0-.79-.12-1.06-.362-.27-.24-.405-.556-.405-.947h.737c0 .228.062.407.186.537.124.127.304.19.542.19.228 0 .405-.063.532-.19.13-.127.196-.306.196-.537h.732zm11.632 6.01l1.797-4.086h1.128V72H73.9v-3.843L72.192 72h-.625l-1.743-3.926V72h-.903v-5.283h1.172l1.787 4.087zM81.522 72c-.053-.104-.095-.29-.128-.557-.42.437-.92.655-1.503.655-.521 0-.95-.147-1.285-.44a1.44 1.44 0 01-.498-1.123c0-.55.209-.976.625-1.28.42-.305 1.01-.458 1.768-.458h.879v-.415c0-.316-.094-.567-.283-.752-.19-.189-.467-.283-.835-.283-.323 0-.593.081-.81.244-.219.163-.328.36-.328.59h-.908c0-.263.093-.517.278-.761.189-.248.443-.443.762-.586a2.58 2.58 0 011.06-.215c.608 0 1.085.153 1.43.46.345.302.524.72.537 1.254v2.432c0 .485.062.87.186 1.157V72h-.947zm-1.5-.689c.284 0 .552-.073.806-.22.254-.146.438-.336.552-.57v-1.085h-.708c-1.107 0-1.66.324-1.66.972 0 .283.094.505.283.664.189.16.431.24.727.24zm9.09-3.847h-2.436V72h-.908v-5.283h3.344v.747zM95.16 72c-.052-.104-.094-.29-.127-.557-.42.437-.921.655-1.504.655-.52 0-.949-.147-1.284-.44a1.44 1.44 0 01-.498-1.123c0-.55.208-.976.625-1.28.42-.305 1.01-.458 1.768-.458h.879v-.415c0-.316-.095-.567-.284-.752-.189-.189-.467-.283-.835-.283-.322 0-.592.081-.81.244-.218.163-.327.36-.327.59h-.909c0-.263.093-.517.279-.761.189-.248.443-.443.761-.586a2.58 2.58 0 011.06-.215c.609 0 1.086.153 1.43.46.346.302.525.72.538 1.254v2.432c0 .485.062.87.185 1.157V72h-.947zm-1.499-.689c.283 0 .552-.073.806-.22a1.33 1.33 0 00.552-.57v-1.085h-.709c-1.106 0-1.66.324-1.66.972 0 .283.095.505.284.664.188.16.43.24.727.24zm8.582-3.149a.695.695 0 00-.283-.586c-.189-.146-.448-.22-.776-.22-.319 0-.586.084-.801.25-.212.166-.318.36-.318.585h-.898c0-.459.192-.835.576-1.127.384-.293.864-.44 1.441-.44.618 0 1.1.133 1.445.4.345.264.517.642.517 1.133 0 .238-.071.456-.214.654a1.468 1.468 0 01-.611.474c.616.209.923.619.923 1.23 0 .486-.187.87-.561 1.153-.375.283-.874.425-1.499.425-.609 0-1.112-.148-1.51-.445-.393-.299-.59-.703-.59-1.21h.898c0 .257.114.478.342.664.231.182.518.273.86.273.345 0 .623-.08.835-.24a.744.744 0 00.317-.62c0-.296-.09-.507-.269-.634-.175-.13-.45-.195-.825-.195h-.903v-.762h.981c.616-.016.923-.27.923-.762zm7.591-1.445h.903V72h-.903v-3.853L107.397 72h-.903v-5.283h.903v3.857l2.437-3.857zm8.67 5.283h-.903v-2.256h-2.427V72h-.908v-5.283h.908v2.29h2.427v-2.29h.903V72zm3.426-.474a.57.57 0 01.136-.39c.095-.104.235-.156.42-.156.186 0 .326.052.42.156a.548.548 0 01.147.39c0 .15-.049.275-.147.376-.094.101-.234.152-.42.152-.185 0-.325-.05-.42-.152a.54.54 0 01-.136-.376zm.005-4.311c0-.156.045-.287.136-.39.095-.105.235-.157.42-.157.186 0 .326.052.42.156a.548.548 0 01.147.39.52.52 0 01-.147.377c-.094.1-.234.151-.42.151-.185 0-.325-.05-.42-.151a.54.54 0 01-.136-.376zm10.572 2.534h-.659V72h-.909v-5.283h.909v2.236h.59l1.778-2.236h1.094l-2.09 2.539L135.485 72h-1.147l-1.831-2.251zM142.578 72h-.903v-2.256h-2.427V72h-.908v-5.283h.908v2.29h2.427v-2.29h.903V72zm6.873-5.283h.903V72h-.903v-3.853L147.015 72h-.904v-5.283h.904v3.857l2.436-3.857zm7.767.747h-2.437V72h-.908v-5.283h3.345v.747zm6.204-.747h.903V72h-.903v-3.853L160.985 72h-.903v-5.283h.903v3.857l2.437-3.857zm4.324 6.699l-.513-.352c.306-.426.466-.865.479-1.318v-.815h.884v.708c0 .328-.082.657-.244.986-.16.329-.362.592-.606.791zm10.792-6.397c.664 0 1.195.224 1.592.67.4.442.6 1.027.6 1.752v.083c0 .498-.096.944-.288 1.338-.192.39-.468.695-.83.913a2.362 2.362 0 01-1.24.323c-.71 0-1.281-.236-1.714-.708-.433-.476-.649-1.112-.649-1.91v-.439c0-1.11.205-1.992.615-2.647.413-.654 1.022-1.053 1.826-1.196.456-.081.764-.18.923-.298a.566.566 0 00.239-.483h.742c0 .407-.092.724-.278.952-.182.228-.475.39-.879.484l-.674.15c-.537.128-.94.343-1.211.645-.266.3-.441.7-.522 1.202.479-.554 1.061-.83 1.748-.83zm-.176.743c-.442 0-.794.15-1.054.449-.261.296-.391.708-.391 1.235v.078c0 .567.13 1.016.391 1.348.263.329.618.493 1.064.493.449 0 .804-.166 1.065-.498.26-.332.39-.817.39-1.455 0-.498-.132-.897-.395-1.196-.261-.303-.617-.454-1.07-.454zm7.576 4.336c-.716 0-1.298-.235-1.748-.704-.449-.472-.673-1.101-.673-1.89v-.165c0-.524.099-.991.297-1.401.202-.414.482-.736.84-.967a2.114 2.114 0 011.172-.352c.687 0 1.221.226 1.602.679.381.452.571 1.1.571 1.943v.376h-3.579c.013.521.164.943.454 1.265.293.319.664.478 1.113.478.319 0 .589-.065.811-.195.221-.13.415-.303.581-.518l.552.43c-.443.68-1.107 1.02-1.993 1.02zm-.112-4.737c-.364 0-.67.134-.918.4-.247.264-.4.636-.459 1.114h2.647v-.068c-.026-.46-.15-.814-.371-1.065-.222-.254-.521-.38-.899-.38zm7.342 4a1.3 1.3 0 00.845-.294 1.03 1.03 0 00.4-.732h.855c-.017.303-.121.59-.313.864a2.053 2.053 0 01-.771.654 2.206 2.206 0 01-1.016.245c-.719 0-1.292-.24-1.719-.718-.423-.482-.635-1.14-.635-1.973v-.151c0-.514.095-.972.284-1.372.188-.4.459-.712.81-.933.355-.221.773-.332 1.255-.332.593 0 1.084.177 1.475.532.394.355.604.816.63 1.382h-.855a1.228 1.228 0 00-.391-.84 1.193 1.193 0 00-.859-.332c-.459 0-.815.166-1.069.498-.251.33-.376.806-.376 1.431v.17c0 .61.125 1.078.376 1.407.25.329.608.493 1.074.493zm9.041-3.912h-1.772V72h-.904v-4.55h-1.738v-.733h4.414v.732zm4.607 3.911a1.3 1.3 0 00.845-.293c.241-.195.374-.44.401-.732h.854c-.016.303-.12.59-.312.864-.193.274-.45.492-.772.654a2.206 2.206 0 01-1.016.245c-.719 0-1.292-.24-1.718-.718-.424-.482-.635-1.14-.635-1.973v-.151c0-.514.094-.972.283-1.372.189-.4.459-.712.811-.933.354-.221.773-.332 1.255-.332.592 0 1.084.177 1.474.532.394.355.604.816.63 1.382h-.854a1.237 1.237 0 00-.391-.84 1.194 1.194 0 00-.859-.332c-.459 0-.816.166-1.07.498-.25.33-.376.806-.376 1.431v.17c0 .61.126 1.078.376 1.407.251.329.609.493 1.074.493zm7.308.738c-.716 0-1.299-.235-1.748-.704-.449-.472-.674-1.101-.674-1.89v-.165c0-.524.099-.991.298-1.401.202-.414.482-.736.84-.967a2.112 2.112 0 011.172-.352c.687 0 1.22.226 1.601.679.381.452.572 1.1.572 1.943v.376h-3.58c.013.521.165.943.455 1.265.293.319.664.478 1.113.478.319 0 .589-.065.81-.195.222-.13.415-.303.581-.518l.552.43c-.442.68-1.107 1.02-1.992 1.02zm-.112-4.737a1.2 1.2 0 00-.918.4c-.248.264-.401.636-.459 1.114h2.646v-.068c-.026-.46-.149-.814-.371-1.065-.221-.254-.521-.38-.898-.38zm9.553-.644V72h-.908v-4.536h-1.797l-.107 1.977c-.059.909-.212 1.558-.459 1.949-.244.39-.633.594-1.167.61h-.361v-.796l.258-.02c.293-.032.503-.201.63-.507s.209-.873.244-1.7l.098-2.26h3.569zm7.782 0V72h-.909v-4.536h-1.796l-.108 1.977c-.058.909-.211 1.558-.459 1.949-.244.39-.633.594-1.167.61h-.361v-.796l.259-.02c.293-.032.503-.201.63-.507.126-.306.208-.873.244-1.7l.097-2.26h3.57zm5.642 5.38c-.716 0-1.299-.234-1.748-.703-.449-.472-.674-1.101-.674-1.89v-.165c0-.524.1-.991.298-1.401.202-.414.482-.736.84-.967a2.112 2.112 0 011.172-.352c.687 0 1.221.226 1.602.679.38.452.571 1.1.571 1.943v.376h-3.579c.013.521.164.943.454 1.265.293.319.664.478 1.113.478.319 0 .589-.065.811-.195.221-.13.415-.303.581-.518l.551.43c-.442.68-1.106 1.02-1.992 1.02zm-.112-4.736a1.2 1.2 0 00-.918.4c-.247.264-.4.636-.459 1.114h2.646v-.068c-.026-.46-.149-.814-.371-1.065-.221-.254-.52-.38-.898-.38zm9.685 2.056c0 .804-.183 1.452-.551 1.943-.368.492-.866.738-1.494.738-.642 0-1.146-.204-1.514-.61v2.543h-.903v-7.314h.825l.044.586c.368-.456.879-.684 1.533-.684.635 0 1.136.24 1.504.718.371.478.556 1.144.556 1.997v.083zm-.903-.103c0-.595-.127-1.066-.381-1.41-.254-.346-.602-.518-1.045-.518-.546 0-.957.242-1.23.727v2.525c.27.481.684.722 1.24.722.433 0 .777-.17 1.03-.512.258-.345.386-.856.386-1.534zm5.042-.776h1.372c.599.007 1.073.163 1.421.469.348.306.523.72.523 1.245 0 .527-.179.95-.538 1.27-.358.319-.839.478-1.445.478h-2.236v-5.283h.903v1.821zm5.2 3.462h-.908v-5.283h.908V72zm-5.2-2.725v1.988h1.343c.338 0 .601-.087.786-.26.186-.175.278-.414.278-.717 0-.293-.091-.532-.273-.718-.179-.188-.431-.286-.757-.293h-1.377zm8.748 4.141l-.512-.352c.306-.426.465-.865.478-1.318v-.815h.884v.708c0 .328-.082.657-.244.986-.16.329-.362.592-.606.791zM272.238 72h-.903v-2.256h-2.427V72H268v-5.283h.908v2.29h2.427v-2.29h.903V72zm3.216-2.69c0-.518.101-.984.303-1.397.205-.413.488-.732.849-.957.365-.225.78-.337 1.246-.337.719 0 1.3.25 1.743.747.446.498.669 1.16.669 1.987v.064c0 .514-.1.977-.298 1.387a2.223 2.223 0 01-.845.952 2.325 2.325 0 01-1.26.342c-.716 0-1.297-.25-1.743-.747-.443-.498-.664-1.158-.664-1.978v-.063zm.908.107c0 .586.135 1.056.406 1.411a1.31 1.31 0 001.093.532 1.3 1.3 0 001.094-.537c.27-.361.405-.866.405-1.513 0-.58-.138-1.049-.415-1.407a1.302 1.302 0 00-1.093-.542 1.3 1.3 0 00-1.08.533c-.273.354-.41.862-.41 1.523zM283.479 72v-5.283h2.061c.703 0 1.242.124 1.616.37.378.245.567.605.567 1.08 0 .244-.074.465-.22.664-.147.195-.363.345-.649.45.319.074.574.22.766.439.195.218.293.478.293.781 0 .485-.179.856-.537 1.113-.355.257-.858.386-1.509.386h-2.388zm.904-2.32v1.592h1.494c.378 0 .659-.07.845-.21a.695.695 0 00.283-.59c0-.528-.387-.791-1.162-.791h-1.46zm0-.722h1.167c.846 0 1.269-.247 1.269-.742s-.4-.75-1.201-.767h-1.235v1.509zm10.144-2.241h.904V72h-.904v-3.853L292.091 72h-.903v-5.283h.903v3.857l2.436-3.857zm8.67 5.283h-.903v-2.256h-2.427V72h-.908v-5.283h.908v2.29h2.427v-2.29h.903V72zm5.101-2.251h-.659V72h-.909v-5.283h.909v2.236h.59l1.778-2.236h1.094l-2.09 2.539L311.276 72h-1.147l-1.831-2.251zm9.173-3.032h.903V72h-.903v-3.853L315.034 72h-.903v-5.283h.903v3.857l2.437-3.857z" fill="#AFAFAF"/><path d="M12.96 52V17.875h11.157c3.703 0 6.485.766 8.344 2.297 1.875 1.531 2.812 3.797 2.812 6.797 0 1.593-.453 3.008-1.359 4.242-.906 1.219-2.14 2.164-3.703 2.836 1.844.516 3.297 1.5 4.36 2.953 1.077 1.438 1.617 3.156 1.617 5.156 0 3.063-.993 5.469-2.977 7.219S28.42 52 24.797 52H12.96zm4.5-15.96v12.28h7.43c2.094 0 3.743-.539 4.946-1.617 1.219-1.094 1.828-2.594 1.828-4.5 0-4.11-2.234-6.164-6.703-6.164h-7.5zm0-3.61h6.798c1.969 0 3.539-.492 4.71-1.477 1.188-.984 1.782-2.32 1.782-4.008 0-1.875-.547-3.234-1.64-4.078-1.094-.86-2.758-1.289-4.993-1.289h-6.656V32.43zm58.857 3.61c0 3.343-.562 6.265-1.687 8.765-1.125 2.484-2.72 4.383-4.782 5.695-2.062 1.313-4.468 1.969-7.218 1.969-2.688 0-5.07-.657-7.149-1.969-2.078-1.328-3.695-3.21-4.851-5.648-1.14-2.454-1.727-5.29-1.758-8.508v-2.461c0-3.281.57-6.18 1.71-8.696 1.141-2.515 2.75-4.437 4.829-5.765 2.094-1.344 4.484-2.016 7.172-2.016 2.734 0 5.14.664 7.219 1.992 2.093 1.313 3.703 3.227 4.828 5.743 1.125 2.5 1.687 5.414 1.687 8.742v2.156zm-4.476-2.204c0-4.047-.813-7.148-2.438-9.305-1.625-2.172-3.898-3.258-6.82-3.258-2.844 0-5.086 1.086-6.727 3.258-1.625 2.157-2.46 5.157-2.508 9v2.508c0 3.922.82 7.008 2.461 9.258 1.657 2.234 3.93 3.351 6.82 3.351 2.907 0 5.157-1.054 6.75-3.164 1.594-2.125 2.415-5.164 2.462-9.117v-2.531zm44.676 2.203c0 3.344-.562 6.266-1.687 8.766-1.125 2.484-2.719 4.383-4.782 5.695-2.062 1.313-4.468 1.969-7.218 1.969-2.688 0-5.07-.657-7.149-1.969-2.078-1.328-3.695-3.21-4.851-5.648-1.14-2.454-1.727-5.29-1.758-8.508v-2.461c0-3.281.57-6.18 1.71-8.696 1.141-2.515 2.75-4.437 4.829-5.765 2.094-1.344 4.484-2.016 7.172-2.016 2.734 0 5.14.664 7.219 1.992 2.093 1.313 3.703 3.227 4.828 5.743 1.125 2.5 1.687 5.414 1.687 8.742v2.156zm-4.476-2.203c0-4.047-.813-7.148-2.438-9.305-1.625-2.172-3.898-3.258-6.82-3.258-2.844 0-5.086 1.086-6.727 3.258-1.625 2.157-2.46 5.157-2.508 9v2.508c0 3.922.82 7.008 2.461 9.258 1.657 2.234 3.93 3.351 6.821 3.351 2.906 0 5.156-1.054 6.75-3.164 1.593-2.125 2.414-5.164 2.461-9.117v-2.531zm27.098 2.297l-4.172 4.336V52h-4.5V17.875h4.5V34.75l15.164-16.875h5.438l-13.43 15.07L156.623 52h-5.39l-12.094-15.867zm33.145 12.187h16.172V52h-20.695V17.875h4.523V48.32zm47.818-5.226h-14.297L202.594 52h-4.641l13.031-34.125h3.938L227.977 52h-4.618l-3.257-8.906zm-12.938-3.703h11.602l-5.813-15.961-5.789 15.96zM265.997 52h-4.524l-17.179-26.297V52h-4.524V17.875h4.524l17.226 26.414V17.875h4.477V52zm15.192 0V17.875h9.633c2.969 0 5.594.656 7.875 1.969 2.281 1.312 4.039 3.18 5.273 5.601 1.25 2.422 1.883 5.203 1.899 8.344v2.18c0 3.218-.625 6.039-1.875 8.46-1.235 2.423-3.008 4.282-5.321 5.579-2.296 1.297-4.976 1.96-8.039 1.992h-9.445zm4.5-30.422V48.32h4.734c3.469 0 6.164-1.078 8.086-3.234 1.938-2.156 2.907-5.227 2.907-9.211v-1.992c0-3.875-.914-6.883-2.743-9.024-1.812-2.156-4.39-3.25-7.734-3.28h-5.25z" fill="#000"/></svg>