<svg width="21" height="21" fill="none" xmlns="http://www.w3.org/2000/svg"><path d="M12.746 4.631a4.54 4.54 0 013.586 3.587M12.746 1a8.171 8.171 0 017.218 7.208m-.908 7.245v2.724a1.818 1.818 0 01-1.98 1.816 17.966 17.966 0 01-7.834-2.787 17.704 17.704 0 01-5.447-5.448 17.967 17.967 0 01-2.788-7.871 1.816 1.816 0 011.807-1.98h2.724A1.816 1.816 0 017.353 3.47c.115.872.329 1.728.636 2.552a1.816 1.816 0 01-.409 1.915L6.427 9.09a14.526 14.526 0 005.448 5.447l1.153-1.153a1.815 1.815 0 011.915-.408c.824.307 1.68.52 2.551.635a1.816 1.816 0 011.562 1.843z" stroke="#6D6D6D" stroke-width="1.5" stroke-linecap="round" stroke-linejoin="round"/></svg>